<svg xmlns="http://www.w3.org/2000/svg" width="612" height="612" viewBox="0 0 612 612">
  <g id="Groupe_1" data-name="Groupe 1" transform="translate(284 207)">
    <g id="Bootstrap" transform="translate(-284 -207)">
      <path id="Tracé_4" data-name="Tracé 4" d="M612,510c0,56.1-45.9,102-102,102H102C45.9,612,0,566.1,0,510V102C0,45.9,45.9,0,102,0H510c56.1,0,102,45.9,102,102Z" fill="#4778ff"/>
      <path id="Tracé_5" data-name="Tracé 5" d="M166.3,133H339.8q48,0,77,22c19.3,14.7,29,36.8,29,66.5q0,27-13.2,46.2c-8.8,12.8-21.4,22.8-37.8,29.8v1q33,7.05,50,31.2c11.3,16.2,17,36.4,17,60.8a101.749,101.749,0,0,1-7.5,39.2,79.209,79.209,0,0,1-23.5,31.5c-10.7,8.8-24.3,15.8-41,21s-36.5,7.8-59.5,7.8h-164V133Zm62.5,149.5h102c15,0,27.5-4.2,37.5-12.8s15-20.8,15-36.8c0-18-4.5-30.7-13.5-38s-22-11-39-11h-102v98.6Zm0,156.5H339.3c19,0,33.8-4.9,44.2-14.8,10.5-9.8,15.8-23.8,15.8-41.8,0-17.7-5.2-31.2-15.8-40.8s-25.2-14.2-44.2-14.2H228.8Z" fill="#fff"/>
    </g>
  </g>
</svg>
