<svg xmlns="http://www.w3.org/2000/svg" width="256" height="256" viewBox="0 0 256 256">
  <g id="Groupe_8" data-name="Groupe 8" transform="translate(-1032 323)">
    <g id="Groupe_2" data-name="Groupe 2">
      <g id="laravel" transform="translate(1032 -323)">
        <path id="Tracé_17" data-name="Tracé 17" d="M160.445,208c2,2.889,3.222,2.667,4.777,2s81.556-27.667,84-28.555,1.667-1.667.89-2.89S222.667,141.111,221.333,139s-2-1.667-4.111-1l-84.8,22.067S158.445,205.11,160.445,208ZM256,171.115v-42.4c-9.541,2.542-21.609,5.756-26.373,7.023C236.814,145.356,248.05,160.4,256,171.115ZM229.545,83.521c-1.307.3-30.247,5.527-32.03,5.764s-1.188,1.248-.475,2.258l25.467,34.943s31.139-7.725,33.041-8.141c.154-.034.3-.07.452-.107v-4.627c-5.66-7.177-21.08-26.718-22.413-28.544-1.6-2.2-2.734-1.842-4.042-1.546Z" fill="#4778ff"/>
        <path id="Tracé_18" data-name="Tracé 18" d="M47.456,28.634c6.267-.285,6.839,1.141,9.592,5.224L126.218,149.5l86.974-20.835c-4.819-6.831-26.695-37.846-28.81-40.806-2.376-3.328.06-4.873,3.923-5.526s37.14-6.24,39.992-6.656,5.112-1.426,9.746,4.16c2.372,2.858,10.412,12.87,17.957,22.255V48a46.236,46.236,0,0,0-14.083-33.917A46.236,46.236,0,0,0,208,0H48A46.236,46.236,0,0,0,14.083,14.083,47.14,47.14,0,0,0,2.57,32.134c15.678-1.288,40.5-3.3,44.887-3.5Z" fill="#4778ff"/>
        <path id="Tracé_19" data-name="Tracé 19" d="M168.289,223.564c-7.334,2.222-10.623,3.325-15.4-3.342-3.578-4.993-22.927-39.843-32.414-57.023-17.955,4.7-50.814,13.278-60.29,15.555-9.248,2.222-13.2-3.323-14.717-6.74C44.4,169.616,17.289,111.158,0,73.65V208a46.236,46.236,0,0,0,14.083,33.917A46.236,46.236,0,0,0,48,256H208a48.083,48.083,0,0,0,48-48V192.219C236.36,199.4,173.23,222.067,168.289,223.564Z" fill="#4778ff"/>
        <path id="Tracé_20" data-name="Tracé 20" d="M60.412,165.288c2.6-.6,51.313-12.253,52.353-12.476s1.708-.817.594-2.747S48.425,37.975,48.425,37.975c-.589-1.011-.421-1.348-2.022-1.264-1.427.076-37.538,3.3-45.9,4a51.038,51.038,0,0,0-.461,5.331c8.487,17.375,57.2,117.837,57.472,118.655.3.892.3,1.189,2.9.6Z" fill="#4778ff"/>
      </g>
    </g>
  </g>
</svg>
