<svg xmlns="http://www.w3.org/2000/svg" width="250.219" height="249.238" viewBox="0 0 250.219 249.238">
  <g id="layer1" transform="translate(-6.006 -45.653)">
    <path id="path818" d="M153.338,45.653a15.86,15.86,0,0,0-5.04.9,14.232,14.232,0,0,1,6.01,8.4c.065.452.194.775.259,1.228a7.1,7.1,0,0,1,.129,1.163c.259,5.687-1.486,6.4-2.714,9.758a13.808,13.808,0,0,0,.9,12.73,7.719,7.719,0,0,0,.775,1.422c-2.456-16.349,11.179-18.8,13.7-23.909.194-4.459-3.489-7.431-6.4-9.5a14.276,14.276,0,0,0-7.625-2.2Zm20.549,3.683a7.478,7.478,0,0,0-.129,1.874c-.065.517-.065,1.163-.129,1.68a14.036,14.036,0,0,1-.452,1.551,14.52,14.52,0,0,1-.517,1.551c-.259.517-.452.969-.711,1.486-.194.259-.323.517-.517.775l-.388.582c-.323.452-.646.9-.969,1.292a9.888,9.888,0,0,1-1.163,1.163v.065c-.388.323-.775.711-1.228,1.034-1.357,1.034-2.908,1.809-4.33,2.779a9.632,9.632,0,0,0-1.292.969,9.447,9.447,0,0,0-1.228,1.034,10.453,10.453,0,0,0-1.163,1.228,9.632,9.632,0,0,0-.969,1.292c-.323.452-.646.9-.9,1.357-.259.517-.452.969-.711,1.486a13.534,13.534,0,0,0-.517,1.486c-.194.582-.323,1.1-.452,1.616-.065.259-.065.582-.129.84s-.065.517-.129.775c0,.517-.065,1.1-.065,1.615a7.015,7.015,0,0,0,.065,1.163,7.334,7.334,0,0,0,.194,1.615,13.243,13.243,0,0,0,.323,1.551c.194.517.323,1.034.517,1.551.129.323.323.646.452.9L142.482,79.9c-2.52-.711-4.976-1.357-7.5-1.939l-4.071-.969c-3.877-.775-7.819-1.357-11.761-1.745-.129,0-.194-.065-.323-.065a115.538,115.538,0,0,0-11.567-.582c-2.843,0-5.687.129-8.465.323-3.942.259-7.884.775-11.825,1.422-.969.129-1.939.323-2.908.517-2,.388-3.942.84-5.816,1.292l-2.908.775c-.969.388-1.874.84-2.779,1.228l-2.132.969c-.129.065-.259.065-.323.129-.646.323-1.228.582-1.809.9a3.149,3.149,0,0,0-.452.194c-.711.323-1.422.711-2,1.034-.452.194-.9.452-1.292.646a5.827,5.827,0,0,1-.582.323c-.582.323-1.163.646-1.68.969a16.258,16.258,0,0,0-1.551.969c-.452.323-.9.582-1.292.9-.065.065-.129.065-.194.129a14.927,14.927,0,0,0-1.228.9l-.129.129-.969.775c-.129.065-.259.194-.388.259-.323.259-.646.582-.969.84-.065.129-.194.194-.259.259-.388.388-.775.711-1.163,1.1-.065,0-.065.065-.129.129-.388.323-.775.711-1.163,1.1-.065.065-.065.129-.129.129-.323.323-.646.646-.969,1.034-.129.129-.323.259-.452.388-.323.388-.711.775-1.1,1.163-.065.129-.194.194-.259.323-.517.517-.969,1.034-1.486,1.551l-.194.194a38.14,38.14,0,0,1-3.3,3.166,36.732,36.732,0,0,1-3.619,2.843c-1.292.9-2.52,1.68-3.877,2.456A39.381,39.381,0,0,1,33.4,108.01c-1.357.582-2.779,1.1-4.2,1.551-2.714.582-5.493,1.68-7.884,1.874a13.749,13.749,0,0,0-1.615.194c-.582.129-1.1.259-1.615.388l-1.551.582a16.523,16.523,0,0,0-1.551.711c-.452.323-.969.582-1.422.9a10.545,10.545,0,0,0-1.292,1.1,11.065,11.065,0,0,0-1.292,1.163c-.388.452-.775.84-1.1,1.292-.323.517-.711.969-.969,1.486a11.384,11.384,0,0,0-.9,1.486c-.259.582-.517,1.1-.711,1.68-.194.517-.388,1.1-.582,1.68a13.232,13.232,0,0,0-.323,1.551c0,.065-.065.129-.065.194-.129.582-.129,1.357-.194,1.745a8.743,8.743,0,0,0-.129,1.292,3.678,3.678,0,0,0,.065.84,6.855,6.855,0,0,0,.259,1.228,8.635,8.635,0,0,0,.452,1.163v.065a11.24,11.24,0,0,0,.711,1.163,13.129,13.129,0,0,0,.84,1.163c.323.323.711.711,1.1,1.034a9.449,9.449,0,0,0,1.228,1.034,15.038,15.038,0,0,0,3.942,2.843c.323.194.646.323,1.034.517.065,0,.129.065.194.065a.582.582,0,0,0,.065.323,13.258,13.258,0,0,0,.323,1.551,8.71,8.71,0,0,0,.517,1.551c.194.388.323.775.517,1.163a1.412,1.412,0,0,0,.194.323c.259.517.517.969.775,1.422l.969,1.357c.323.388.711.84,1.1,1.228s.775.711,1.228,1.1a.226.226,0,0,0,.129.065,14.18,14.18,0,0,0,1.163.9,10.286,10.286,0,0,0,1.422.84,10.5,10.5,0,0,0,1.486.711,7.6,7.6,0,0,0,1.292.452c.065.065.129.065.259.129.259.065.582.129.84.194-.194,3.489-.259,6.785.259,7.948.582,1.292,3.425-2.649,6.268-7.173-.388,4.459-.646,9.693,0,11.244.711,1.615,4.588-3.425,7.948-8.982,45.815-10.6,87.624,21.066,92.018,65.783-.84-6.979-9.434-10.856-13.376-9.887-1.939,4.782-5.234,10.921-10.533,14.733a41.434,41.434,0,0,0-.646-12.924,41.792,41.792,0,0,1-8.013,16.284h0a18.05,18.05,0,0,1-15.509-6.979c-.259-.194-.323-.582-.517-.84a11.649,11.649,0,0,1-.517-1.357A5.364,5.364,0,0,1,85.1,219.8a9.989,9.989,0,0,1-.065-1.422v-.969a10.348,10.348,0,0,1,.323-1.357,11.136,11.136,0,0,1,.452-1.357,14.537,14.537,0,0,1,.775-1.357c1.1-3.1,1.1-5.622-.9-7.108a7.36,7.36,0,0,0-1.228-.646c-.259-.065-.582-.194-.84-.259-.194-.065-.323-.129-.517-.194a10.328,10.328,0,0,0-1.357-.323,4.923,4.923,0,0,0-1.357-.194,10.536,10.536,0,0,0-1.422-.129c-.323,0-.646.065-.969.065a5.046,5.046,0,0,0-1.422.194,10.032,10.032,0,0,0-1.357.259,11.135,11.135,0,0,0-1.357.452c-.452.194-.84.388-1.292.582-.388.194-.775.452-1.228.646-15.056,9.822-6.074,32.827,4.2,39.483-3.877.711-7.819,1.551-8.917,2.391l-.129.129a60.887,60.887,0,0,0,8.724,4.329c4.136,1.357,8.53,2.585,10.468,3.1v.065a62.515,62.515,0,0,0,16.284,1.163,61.464,61.464,0,0,0,56.348-52.471c.129.582.259,1.1.388,1.68h0c.194,1.163.452,2.391.582,3.619v.065c.129.582.194,1.163.259,1.68v.259a15.861,15.861,0,0,1,.129,1.68c.065.711.129,1.422.129,2.132v1.034c0,.323.065.711.065,1.034,0,.388-.065.775-.065,1.163v.9c0,.452-.065.84-.065,1.292a3.97,3.97,0,0,1-.065.84c0,.452-.065.9-.065,1.422a1.784,1.784,0,0,0-.065.582c-.065.517-.129.969-.194,1.486a1.787,1.787,0,0,1-.065.582c-.065.646-.194,1.228-.259,1.874v.13c-.129.582-.259,1.228-.388,1.809v.194l-.388,1.745c0,.065-.065.194-.065.259a17.344,17.344,0,0,1-.452,1.745v.194c-.194.646-.388,1.228-.517,1.809a.2.2,0,0,0-.065.129l-.582,1.939c-.259.646-.452,1.228-.711,1.874s-.452,1.292-.711,1.874c-.259.646-.517,1.228-.775,1.874h-.065c-.259.582-.517,1.228-.84,1.809h0a3.148,3.148,0,0,1-.194.452c-.065.065-.065.129-.129.194a61.164,61.164,0,0,1-18.158,21.712h0c-.517.323-1.034.711-1.551,1.1h0c-.129.129-.323.194-.452.323-.452.323-.9.646-1.422.969l.194.388h.065l2.714-.388h.065c1.68-.259,3.36-.582,5.04-.9a11.278,11.278,0,0,0,1.422-.323c.323-.065.582-.129.9-.194.452-.065.9-.194,1.357-.259.388-.129.775-.194,1.163-.323a122.467,122.467,0,0,0,18.74-6.2A103.488,103.488,0,0,1,123.1,294.891a106.322,106.322,0,0,0,22.035-3.813A103.244,103.244,0,0,0,206.2,242.29a103.144,103.144,0,0,1-17.383,41.55,101.549,101.549,0,0,0,44.458-69.272,102.9,102.9,0,0,1,1.874,31.147c46.655-65.072,3.877-132.535-14.022-150.3-.065-.129-.129-.194-.129-.323-.065.065-.065.065-.065.129,0-.065,0-.065-.065-.129,0,.775-.065,1.551-.129,2.326-.194,1.486-.388,2.908-.646,4.33-.323,1.422-.711,2.843-1.1,4.265-.452,1.357-.969,2.779-1.551,4.136-.582,1.292-1.228,2.649-1.939,3.942-.711,1.228-1.486,2.52-2.326,3.683-.84,1.228-1.745,2.391-2.649,3.489-.969,1.163-2,2.2-3.037,3.231-.646.582-1.228,1.1-1.874,1.615-.517.452-.969.84-1.486,1.292a36.063,36.063,0,0,1-3.619,2.52c-1.228.775-2.52,1.551-3.813,2.2-1.357.646-2.714,1.228-4.071,1.809-1.357.517-2.779.969-4.2,1.357s-2.908.711-4.329.969c-1.486.259-2.972.388-4.394.517-1.034.065-2.068.129-3.1.129-1.486,0-2.972-.129-4.394-.259a43.489,43.489,0,0,1-8.724-1.745h-.065c1.422-.129,2.843-.259,4.265-.517,1.486-.259,2.908-.582,4.329-.969s2.843-.84,4.2-1.357a38.8,38.8,0,0,0,4.071-1.809c1.357-.646,2.585-1.357,3.877-2.132,1.228-.84,2.456-1.68,3.619-2.585a52.756,52.756,0,0,0,6.333-6.074q1.454-1.745,2.714-3.489c.129-.194.259-.452.388-.646.646-1.034,1.292-2.068,1.874-3.1.711-1.292,1.357-2.585,1.939-3.942s1.1-2.714,1.551-4.136c.452-1.357.775-2.779,1.1-4.2.259-1.486.517-2.908.646-4.33.129-1.486.259-2.973.259-4.394,0-1.034-.065-2.068-.129-3.1-.129-1.486-.323-2.908-.517-4.33-.259-1.486-.582-2.908-.969-4.33-.452-1.357-.9-2.779-1.422-4.136s-1.163-2.714-1.809-4.006c-.711-1.292-1.422-2.585-2.2-3.813-.84-1.228-1.68-2.391-2.585-3.554-.969-1.1-1.939-2.2-2.973-3.3-.517-.517-1.1-1.1-1.68-1.615-2.908-2.262-5.945-4.394-8.982-6.333a12.032,12.032,0,0,0-1.292-.646,25.18,25.18,0,0,0-6.139-2.714Z" fill="#4778ff" fill-rule="evenodd"/>
  </g>
</svg>
