<svg xmlns="http://www.w3.org/2000/svg" xmlns:xlink="http://www.w3.org/1999/xlink" width="720" height="405" viewBox="0 0 720 405">
  <defs>
    <clipPath id="clip-path">
      <path id="path3446" d="M14.4-202.5C14.4-102.1,169.134-20.7,360-20.7h0c190.866,0,345.6-81.4,345.6-181.8h0c0-100.4-154.735-181.8-345.6-181.8h0c-190.866,0-345.6,81.4-345.6,181.8" fill="#e3e3e3"/>
    </clipPath>
    <radialGradient id="radial-gradient" cx="0.628" cy="0.8" r="1.248" gradientTransform="translate(-0.009 0.511) scale(0.526 1)" gradientUnits="objectBoundingBox">
      <stop offset="0" stop-color="#87a9ff"/>
      <stop offset="0.322" stop-color="#b8c6ee"/>
      <stop offset="0.527" stop-color="#95b3ff"/>
      <stop offset="0.75" stop-color="#5475ce"/>
      <stop offset="1" stop-color="#4a7bff"/>
    </radialGradient>
    <clipPath id="clip-path-2">
      <path id="path3470" d="M0-405H720V0H0Z"/>
    </clipPath>
    <clipPath id="clip-path-3">
      <path id="path3482" d="M0-405H720V0H0Z" fill="#f3f3f3"/>
    </clipPath>
  </defs>
  <g id="g3438" transform="translate(0 405)">
    <g id="g3440">
      <g id="g3442" clip-path="url(#clip-path)">
        <g id="g3448">
          <g id="g3450">
            <path id="path3462" d="M14.4-202.5C14.4-102.1,169.134-20.7,360-20.7h0c190.866,0,345.6-81.4,345.6-181.8h0c0-100.4-154.735-181.8-345.6-181.8h0c-190.866,0-345.6,81.4-345.6,181.8" fill="url(#radial-gradient)"/>
          </g>
        </g>
      </g>
    </g>
    <g id="g3464">
      <g id="g3466" clip-path="url(#clip-path-2)">
        <g id="g3472" transform="translate(360 -34.199)">
          <path id="path3474" d="M0,0C183.411,0,332.1-75.351,332.1-168.3S183.411-336.6,0-336.6-332.1-261.25-332.1-168.3-183.411,0,0,0" fill="#4778ff"/>
        </g>
      </g>
    </g>
    <g id="g3476">
      <g id="g3478" clip-path="url(#clip-path-3)">
        <g id="g3484" transform="translate(202.168 -181.633)">
          <path id="path3486" d="M0,0C15.081,0,26.34-2.781,33.464-8.264,40.511-13.69,45.379-23.091,47.93-36.205,50.309-48.463,49.4-57.021,45.238-61.64c-4.259-4.717-13.466-7.11-27.366-7.11H-6.23L-19.591,0ZM-78.829,84.688a3.745,3.745,0,0,1-2.893-1.365,3.748,3.748,0,0,1-.787-3.1L-47.1-101.966A3.751,3.751,0,0,1-43.418-105H32.9c23.985,0,41.838,6.512,53.059,19.359C97.24-72.728,100.724-54.676,96.313-31.99A85.634,85.634,0,0,1,87.136-6.479,85.419,85.419,0,0,1,70.248,14.684a74.091,74.091,0,0,1-27.8,16.655C32.449,34.6,19.6,36.25,4.267,36.25h-30.9l-8.825,45.4a3.749,3.749,0,0,1-3.68,3.035Z" fill="#fff"/>
        </g>
        <g id="g3488" transform="translate(199.03 -246.634)">
          <path id="path3490" d="M0,0H21.01c16.776,0,22.6,3.681,24.584,5.875,3.285,3.642,3.9,11.322,1.794,22.209-2.373,12.188-6.77,20.829-13.073,25.681C27.863,58.732,17.372,61.25,3.139,61.25H-11.9ZM36.039-43.75H-40.28a7.5,7.5,0,0,0-7.361,6.069l-35.41,182.189a7.5,7.5,0,0,0,1.574,6.2,7.5,7.5,0,0,0,5.788,2.729H-36a7.5,7.5,0,0,0,7.362-6.069L-20.4,105H7.406c15.727,0,28.967-1.715,39.349-5.1a77.836,77.836,0,0,0,29.193-17.48,89.206,89.206,0,0,0,17.6-22.071,89.376,89.376,0,0,0,9.585-26.627c4.644-23.88.871-43-11.211-56.833C79.956-36.805,61.154-43.75,36.039-43.75M-21,68.75H3.139q24,0,35.751-9.043t15.86-30.2Q58.689,9.2,51.161.85T21.01-7.5H-6.182L-21,68.75m57.041-105q34.438,0,50.235,18.076T95.77,32.3A81.573,81.573,0,0,1,87,56.694a81.364,81.364,0,0,1-16.152,20.23A70.1,70.1,0,0,1,44.433,92.773Q29.9,97.507,7.406,97.5H-26.589L-36,145.938H-75.69L-40.28-36.25H36.039" fill="#5784ff"/>
        </g>
        <g id="g3492" transform="translate(389.479 -145.383)">
          <path id="path3494" d="M0,0A3.744,3.744,0,0,1-2.892-1.365a3.743,3.743,0,0,1-.789-3.1L11.983-85.076c1.49-7.666,1.123-13.169-1.034-15.494-1.32-1.421-5.285-3.805-17.009-3.805H-34.437L-54.131-3.035A3.75,3.75,0,0,1-57.812,0H-97.187a3.748,3.748,0,0,1-2.894-1.365,3.748,3.748,0,0,1-.787-3.1l35.41-182.189a3.751,3.751,0,0,1,3.681-3.034H-22.4a3.751,3.751,0,0,1,2.894,1.364,3.75,3.75,0,0,1,.788,3.1l-8.545,43.973H3.261c23.256,0,39.026,4.1,48.211,12.535,9.362,8.6,12.284,22.364,8.684,40.9L43.681-3.035A3.749,3.749,0,0,1,40,0Z" fill="#fff"/>
        </g>
        <g id="g3496" transform="translate(367.076 -338.821)">
          <path id="path3498" d="M0,0H-39.375a7.5,7.5,0,0,0-7.362,6.069l-35.41,182.189a7.5,7.5,0,0,0,1.575,6.2,7.5,7.5,0,0,0,5.788,2.729H-35.41a7.5,7.5,0,0,0,7.362-6.069l19.1-98.306H16.343c11.7,0,14.16,2.5,14.259,2.607.71.764,1.644,4.3.1,12.226L15.04,188.258a7.5,7.5,0,0,0,7.363,8.93h40a7.5,7.5,0,0,0,7.362-6.069l16.474-84.781c3.866-19.9.559-34.83-9.826-44.375-9.91-9.1-26.51-13.525-50.749-13.525H-.316L7.362,8.931a7.5,7.5,0,0,0-1.575-6.2A7.5,7.5,0,0,0,0,0M0,7.5-9.414,55.938H25.664q33.107,0,45.674,11.548t7.54,37.422L62.4,189.688h-40l15.664-80.61Q40.74,95.323,36.1,90.317t-19.756-5h-31.47L-35.41,189.688H-74.785L-39.375,7.5H0" fill="#5482ff"/>
        </g>
        <g id="g3500" transform="translate(511.937 -181.633)">
          <path id="path3502" d="M0,0C15.081,0,26.34-2.781,33.464-8.264c7.048-5.425,11.915-14.826,14.468-27.941C50.31-48.463,49.4-57.021,45.238-61.64c-4.259-4.717-13.466-7.11-27.366-7.11H-6.23L-19.591,0ZM-78.827,84.688a3.745,3.745,0,0,1-2.893-1.365,3.748,3.748,0,0,1-.789-3.1L-47.1-101.966A3.752,3.752,0,0,1-43.416-105H32.9c23.986,0,41.838,6.512,53.06,19.359C97.241-72.729,100.724-54.678,96.314-31.99A85.705,85.705,0,0,1,87.136-6.479,85.419,85.419,0,0,1,70.248,14.684a74.091,74.091,0,0,1-27.8,16.655C32.449,34.6,19.6,36.25,4.267,36.25h-30.9l-8.821,45.4a3.752,3.752,0,0,1-3.682,3.035Z" fill="#fff"/>
        </g>
        <g id="g3504" transform="translate(508.799 -246.634)">
          <path id="path3506" d="M0,0H21.01c16.776,0,22.6,3.681,24.584,5.875C48.88,9.517,49.5,17.2,47.388,28.083c-2.373,12.189-6.771,20.83-13.073,25.682C27.863,58.732,17.372,61.25,3.139,61.25H-11.9ZM36.039-43.75H-40.279a7.5,7.5,0,0,0-7.361,6.069L-83.05,144.508a7.5,7.5,0,0,0,1.574,6.2,7.5,7.5,0,0,0,5.787,2.729H-36a7.5,7.5,0,0,0,7.362-6.069L-20.4,105H7.406c15.727,0,28.968-1.715,39.349-5.1a77.836,77.836,0,0,0,29.2-17.482,89.161,89.161,0,0,0,17.6-22.069,89.376,89.376,0,0,0,9.585-26.627c4.644-23.881.871-43-11.211-56.834C79.956-36.805,61.155-43.75,36.039-43.75M-21,68.75H3.139q24,0,35.751-9.043t15.86-30.2Q58.691,9.2,51.161.85T21.01-7.5H-6.182L-21,68.75m57.04-105q34.438,0,50.235,18.076T95.77,32.3A81.573,81.573,0,0,1,87,56.694a81.364,81.364,0,0,1-16.152,20.23A70.1,70.1,0,0,1,44.433,92.773Q29.9,97.507,7.406,97.5H-26.589L-36,145.938H-75.689L-40.279-36.25H36.039" fill="#517fff"/>
        </g>
      </g>
    </g>
  </g>
</svg>
