<svg xmlns="http://www.w3.org/2000/svg" width="511.361" height="531.651" viewBox="0 0 511.361 531.651">
  <g id="a64a034c3cb8eac64eb46ea474902797" transform="translate(-28.7 -10)">
    <g id="Groupe_1" data-name="Groupe 1" transform="translate(28.7 10)">
      <path id="Tracé_1" data-name="Tracé 1" d="M342.862,495.755c.705.054,1.41.109,2.116.109h160.96a34.15,34.15,0,0,0,34.123-34.123V88.608a34.15,34.15,0,0,0-34.123-34.123H344.978c-.705,0-1.411.054-2.116.109V10L28.7,51.935v446.7l314.162,43.02Zm0-421.578a13.991,13.991,0,0,1,2.116-.217h160.96a14.656,14.656,0,0,1,14.647,14.648V461.741a14.656,14.656,0,0,1-14.647,14.648H344.978a13.992,13.992,0,0,1-2.116-.217ZM79.424,307.725C68.791,307.453,58.429,304.2,53.33,301l4.177-18.445a50.764,50.764,0,0,0,23.165,6.619c9.765.163,14.973-4.069,14.973-10.687,0-6.293-4.5-9.928-15.787-14.322-15.407-5.8-25.335-14.973-25.335-29.4,0-16.926,13.074-30.217,35.1-30.814a55.725,55.725,0,0,1,24.413,4.5l-4.883,18.716a42.836,42.836,0,0,0-19.964-4.5c-9.223.163-13.617,4.665-13.617,9.874,0,6.4,5.262,9.168,17.414,14.051,16.872,6.564,24.9,16,24.9,30.434C117.833,294.162,105.41,308.43,79.424,307.725ZM220.8,328.448a378.2,378.2,0,0,1-41.556-16.329,23.454,23.454,0,0,0-7.161-1.736c-22.839-2.17-43.78-19.8-43.78-53.436,0-30.868,18.825-54.576,49.1-55.389,32.008-.868,49.964,23.707,49.964,53.219,0,24.521-11.338,41.61-25.335,47.686v.651c8.192,2.55,17.36,4.72,25.823,6.673Zm93.636-16.112-70.851-1.845V201.611l25.226-.651v89.3l45.679.76v21.32Z" transform="translate(-28.7 -10)" fill="#4778ff"/>
      <path id="Tracé_2" data-name="Tracé 2" d="M280.836,398c-15.787.271-24.738,16.166-24.738,35.642-.163,19.8,9.114,35.1,24.575,35.371,15.841.271,25.226-14.919,25.226-35.859C305.9,413.73,296.84,397.726,280.836,398Z" transform="translate(-132.734 -187.507)" fill="#4778ff"/>
      <path id="Tracé_3" data-name="Tracé 3" d="M698.724,528.87c37.867,0,67.487-13.508,67.487-30.814V478.634a16.55,16.55,0,0,0-2.387-8.3l-.054-.109a16.246,16.246,0,0,0,2.5-8.3V442.5a16.552,16.552,0,0,0-2.387-8.3l-.217-.326a16.159,16.159,0,0,0,2.6-8.571V405.885a16.51,16.51,0,0,0-2.17-7.975l-.163-.326a10.6,10.6,0,0,0,.705-3.689c0-15.678-33.96-24.2-65.86-24.2s-65.805,8.463-65.805,24.2a10.661,10.661,0,0,0,.76,3.689l-.163.326a16.355,16.355,0,0,0-2.17,7.975V425.2a16.159,16.159,0,0,0,2.6,8.572l-.217.38a16.7,16.7,0,0,0-2.387,8.3v19.422a15.6,15.6,0,0,0,2.5,8.3l-.054.108a16.7,16.7,0,0,0-2.387,8.3V498C631.292,515.362,660.912,528.87,698.724,528.87ZM638.507,409.031c10.85,9.168,35.914,13.942,60.218,13.942,24.358,0,49.422-4.774,60.272-13.942V425.2c0,11.121-24.738,23.545-60.272,23.545-35.479,0-60.218-12.423-60.218-23.545Zm0,34.612c11.067,10.145,33.852,16.6,60.218,16.6,26.42,0,49.2-6.456,60.272-16.655v18.282c0,11.121-24.738,23.545-60.272,23.545-35.479,0-60.218-12.423-60.218-23.545Zm0,36.185c11.067,10.145,33.852,16.6,60.218,16.6,26.42,0,49.2-6.456,60.272-16.655v18.282c0,11.121-24.738,23.545-60.272,23.545-35.479,0-60.218-12.423-60.218-23.545Z" transform="translate(-304.435 -174.563)" fill="#4778ff"/>
    </g>
  </g>
</svg>
